# xmcd CD database file
#
# Track frame offsets:
#	150
#	14167
#	30032
#
# Disc length: 611 seconds
#
# Revision: 0
# Processed by: cddbd v1.5.2PL0 Copyright (c) Steve Scherf et al.
# Submitted via: CDex 1.70beta2
#
DISCID=17026103
DTITLE=Arney, Dallas - Cdn. - Flinton, ON - Demo CD
DYEAR=1900
DGENRE=Country
TTITLE0=Widlwood Flower
TTITLE1=Your My Angel
TTITLE2=Famous In A Small Town
EXTD=
EXTT0=
EXTT1=
EXTT2=
PLAYORDER=
